<svg width="276" height="80" viewBox="0 0 276 80" fill="none" xmlns="http://www.w3.org/2000/svg">
<rect width="276" height="80" fill="#D9D9D9"/>
<rect width="64" height="66" transform="translate(11 7)" fill="black"/>
<path d="M13.6666 56.5C14.0666 51.5959 15.5222 47.0813 18.0333 42.9563C20.5444 38.8313 23.8888 35.5542 28.0666 33.125L23.1333 24.325C22.8666 23.9125 22.8 23.4771 22.9333 23.0188C23.0666 22.5605 23.3555 22.2167 23.8 21.9875C24.1555 21.7584 24.5555 21.7125 25 21.85C25.4444 21.9875 25.8 22.2625 26.0666 22.675L31 31.475C34.8222 29.825 38.8222 29 43 29C47.1777 29 51.1777 29.825 55 31.475L59.9333 22.675C60.2 22.2625 60.5555 21.9875 61 21.85C61.4444 21.7125 61.8444 21.7584 62.2 21.9875C62.6444 22.2167 62.9333 22.5605 63.0666 23.0188C63.2 23.4771 63.1333 23.9125 62.8666 24.325L57.9333 33.125C62.1111 35.5542 65.4555 38.8313 67.9666 42.9563C70.4777 47.0813 71.9333 51.5959 72.3333 56.5H13.6666ZM29.6666 48.9375C30.6 48.9375 31.3888 48.6053 32.0333 47.9407C32.6777 47.2761 33 46.4625 33 45.5C33 44.5375 32.6777 43.724 32.0333 43.0594C31.3888 42.3948 30.6 42.0625 29.6666 42.0625C28.7333 42.0625 27.9444 42.3948 27.3 43.0594C26.6555 43.724 26.3333 44.5375 26.3333 45.5C26.3333 46.4625 26.6555 47.2761 27.3 47.9407C27.9444 48.6053 28.7333 48.9375 29.6666 48.9375ZM56.3333 48.9375C57.2666 48.9375 58.0555 48.6053 58.7 47.9407C59.3444 47.2761 59.6666 46.4625 59.6666 45.5C59.6666 44.5375 59.3444 43.724 58.7 43.0594C58.0555 42.3948 57.2666 42.0625 56.3333 42.0625C55.4 42.0625 54.6111 42.3948 53.9666 43.0594C53.3222 43.724 53 44.5375 53 45.5C53 46.4625 53.3222 47.2761 53.9666 47.9407C54.6111 48.6053 55.4 48.9375 56.3333 48.9375Z" fill="#E3E3E3"/>
<path d="M118.442 36.0497C118.304 35.6188 118.12 35.233 117.888 34.892C117.661 34.5464 117.388 34.2528 117.071 34.0114C116.754 33.7652 116.392 33.5781 115.984 33.4503C115.582 33.3224 115.139 33.2585 114.656 33.2585C113.837 33.2585 113.098 33.4692 112.44 33.8906C111.782 34.312 111.261 34.9299 110.878 35.7443C110.499 36.554 110.31 37.5459 110.31 38.7202C110.31 39.8991 110.501 40.8958 110.885 41.7102C111.268 42.5246 111.794 43.1425 112.462 43.5639C113.129 43.9853 113.889 44.196 114.741 44.196C115.532 44.196 116.221 44.035 116.808 43.7131C117.4 43.3911 117.857 42.9366 118.179 42.3494C118.506 41.7576 118.669 41.0616 118.669 40.2614L119.237 40.3679H115.075V38.5568H120.793V40.2116C120.793 41.4332 120.532 42.4938 120.011 43.3935C119.495 44.2884 118.78 44.9796 117.866 45.4673C116.957 45.955 115.916 46.1989 114.741 46.1989C113.425 46.1989 112.27 45.8958 111.276 45.2898C110.286 44.6837 109.514 43.8243 108.96 42.7116C108.406 41.5942 108.129 40.2685 108.129 38.7344C108.129 37.5743 108.29 36.5327 108.612 35.6094C108.934 34.6861 109.386 33.9025 109.969 33.2585C110.556 32.6098 111.245 32.1151 112.036 31.7741C112.831 31.4285 113.7 31.2557 114.642 31.2557C115.428 31.2557 116.16 31.3717 116.837 31.6037C117.518 31.8357 118.125 32.1648 118.655 32.5909C119.19 33.017 119.633 33.5237 119.983 34.1108C120.333 34.6932 120.57 35.3395 120.693 36.0497H118.442ZM128.003 46.2202C126.98 46.2202 126.088 45.9858 125.326 45.517C124.563 45.0483 123.971 44.3925 123.55 43.5497C123.129 42.7069 122.918 41.7221 122.918 40.5952C122.918 39.4635 123.129 38.474 123.55 37.6264C123.971 36.7789 124.563 36.1207 125.326 35.652C126.088 35.1832 126.98 34.9489 128.003 34.9489C129.026 34.9489 129.918 35.1832 130.681 35.652C131.443 36.1207 132.035 36.7789 132.456 37.6264C132.878 38.474 133.088 39.4635 133.088 40.5952C133.088 41.7221 132.878 42.7069 132.456 43.5497C132.035 44.3925 131.443 45.0483 130.681 45.517C129.918 45.9858 129.026 46.2202 128.003 46.2202ZM128.01 44.4375C128.673 44.4375 129.222 44.2623 129.658 43.9119C130.094 43.5616 130.416 43.0952 130.624 42.5128C130.837 41.9304 130.944 41.2888 130.944 40.5881C130.944 39.892 130.837 39.2528 130.624 38.6705C130.416 38.0833 130.094 37.6122 129.658 37.2571C129.222 36.902 128.673 36.7244 128.01 36.7244C127.343 36.7244 126.789 36.902 126.348 37.2571C125.913 37.6122 125.588 38.0833 125.375 38.6705C125.167 39.2528 125.063 39.892 125.063 40.5881C125.063 41.2888 125.167 41.9304 125.375 42.5128C125.588 43.0952 125.913 43.5616 126.348 43.9119C126.789 44.2623 127.343 44.4375 128.01 44.4375ZM140.054 46.2202C139.031 46.2202 138.139 45.9858 137.376 45.517C136.614 45.0483 136.022 44.3925 135.601 43.5497C135.179 42.7069 134.969 41.7221 134.969 40.5952C134.969 39.4635 135.179 38.474 135.601 37.6264C136.022 36.7789 136.614 36.1207 137.376 35.652C138.139 35.1832 139.031 34.9489 140.054 34.9489C141.077 34.9489 141.969 35.1832 142.732 35.652C143.494 36.1207 144.086 36.7789 144.507 37.6264C144.929 38.474 145.139 39.4635 145.139 40.5952C145.139 41.7221 144.929 42.7069 144.507 43.5497C144.086 44.3925 143.494 45.0483 142.732 45.517C141.969 45.9858 141.077 46.2202 140.054 46.2202ZM140.061 44.4375C140.724 44.4375 141.273 44.2623 141.709 43.9119C142.144 43.5616 142.466 43.0952 142.675 42.5128C142.888 41.9304 142.994 41.2888 142.994 40.5881C142.994 39.892 142.888 39.2528 142.675 38.6705C142.466 38.0833 142.144 37.6122 141.709 37.2571C141.273 36.902 140.724 36.7244 140.061 36.7244C139.393 36.7244 138.839 36.902 138.399 37.2571C137.964 37.6122 137.639 38.0833 137.426 38.6705C137.218 39.2528 137.114 39.892 137.114 40.5881C137.114 41.2888 137.218 41.9304 137.426 42.5128C137.639 43.0952 137.964 43.5616 138.399 43.9119C138.839 44.2623 139.393 44.4375 140.061 44.4375ZM152.083 50.3182C151.217 50.3182 150.471 50.2045 149.846 49.9773C149.226 49.75 148.719 49.4493 148.326 49.0753C147.933 48.7012 147.64 48.2917 147.446 47.8466L149.271 47.0938C149.399 47.3021 149.569 47.5223 149.782 47.7543C150 47.991 150.294 48.1922 150.663 48.358C151.037 48.5237 151.518 48.6065 152.105 48.6065C152.91 48.6065 153.575 48.41 154.1 48.017C154.626 47.6288 154.889 47.0085 154.889 46.1562V44.0114H154.754C154.626 44.2434 154.441 44.5014 154.2 44.7855C153.963 45.0696 153.636 45.3158 153.22 45.5241C152.803 45.7325 152.261 45.8366 151.593 45.8366C150.732 45.8366 149.955 45.6354 149.264 45.233C148.577 44.8258 148.033 44.2268 147.63 43.4361C147.233 42.6406 147.034 41.6629 147.034 40.5028C147.034 39.3428 147.23 38.3485 147.623 37.5199C148.021 36.6913 148.565 36.0568 149.257 35.6165C149.948 35.1714 150.732 34.9489 151.608 34.9489C152.285 34.9489 152.832 35.0625 153.248 35.2898C153.665 35.5123 153.989 35.7727 154.221 36.071C154.458 36.3693 154.64 36.6321 154.768 36.8594H154.924V35.0909H157.005V46.2415C157.005 47.179 156.788 47.9484 156.352 48.5497C155.916 49.151 155.327 49.5961 154.583 49.8849C153.845 50.1738 153.011 50.3182 152.083 50.3182ZM152.062 44.0753C152.673 44.0753 153.189 43.9332 153.61 43.6491C154.037 43.3603 154.359 42.9484 154.576 42.4134C154.799 41.8736 154.91 41.2273 154.91 40.4744C154.91 39.7405 154.801 39.0942 154.583 38.5355C154.366 37.9768 154.046 37.5412 153.625 37.2287C153.203 36.9115 152.682 36.7528 152.062 36.7528C151.423 36.7528 150.89 36.9186 150.464 37.25C150.038 37.5767 149.716 38.0218 149.498 38.5852C149.285 39.1487 149.179 39.7784 149.179 40.4744C149.179 41.1894 149.288 41.8168 149.505 42.3565C149.723 42.8963 150.045 43.3177 150.471 43.6207C150.902 43.9238 151.432 44.0753 152.062 44.0753ZM161.977 31.4545V46H159.853V31.4545H161.977ZM169.536 46.2202C168.461 46.2202 167.535 45.9905 166.759 45.5312C165.987 45.0672 165.39 44.4162 164.969 43.5781C164.552 42.7353 164.344 41.7481 164.344 40.6165C164.344 39.4991 164.552 38.5142 164.969 37.6619C165.39 36.8097 165.977 36.1444 166.73 35.6662C167.488 35.188 168.373 34.9489 169.386 34.9489C170.002 34.9489 170.598 35.0507 171.176 35.2543C171.754 35.4579 172.272 35.7775 172.732 36.2131C173.191 36.6487 173.553 37.2145 173.818 37.9105C174.083 38.6018 174.216 39.4422 174.216 40.4318V41.1847H165.544V39.5938H172.135C172.135 39.035 172.021 38.5402 171.794 38.1094C171.567 37.6738 171.247 37.3305 170.835 37.0795C170.428 36.8286 169.95 36.7031 169.401 36.7031C168.804 36.7031 168.283 36.8499 167.838 37.1435C167.398 37.4323 167.057 37.8111 166.815 38.2798C166.579 38.7438 166.46 39.2481 166.46 39.7926V41.0355C166.46 41.7647 166.588 42.3849 166.844 42.8963C167.104 43.4077 167.466 43.7983 167.93 44.0682C168.394 44.3333 168.937 44.4659 169.557 44.4659C169.959 44.4659 170.326 44.4091 170.658 44.2955C170.989 44.1771 171.276 44.0019 171.517 43.7699C171.759 43.5379 171.943 43.2514 172.071 42.9105L174.081 43.2727C173.92 43.8646 173.631 44.383 173.214 44.8281C172.803 45.2685 172.284 45.6117 171.659 45.858C171.039 46.0994 170.331 46.2202 169.536 46.2202ZM182.036 46V31.4545H187.22C188.352 31.4545 189.289 31.6605 190.033 32.0724C190.776 32.4844 191.332 33.0478 191.702 33.7628C192.071 34.473 192.256 35.2732 192.256 36.1634C192.256 37.0582 192.069 37.8632 191.695 38.5781C191.325 39.2884 190.767 39.8518 190.018 40.2685C189.275 40.6804 188.34 40.8864 187.213 40.8864H183.648V39.0256H187.014C187.729 39.0256 188.309 38.9025 188.754 38.6562C189.199 38.4053 189.526 38.0644 189.734 37.6335C189.943 37.2027 190.047 36.7126 190.047 36.1634C190.047 35.6141 189.943 35.1264 189.734 34.7003C189.526 34.2741 189.197 33.9403 188.747 33.6989C188.302 33.4574 187.715 33.3366 186.986 33.3366H184.23V46H182.036ZM196.782 31.4545V46H194.658V31.4545H196.782ZM202.813 46.2415C202.122 46.2415 201.497 46.1136 200.938 45.858C200.379 45.5975 199.937 45.2211 199.61 44.7287C199.288 44.2363 199.127 43.6326 199.127 42.9176C199.127 42.3021 199.246 41.7955 199.482 41.3977C199.719 41 200.039 40.6851 200.441 40.4531C200.844 40.2211 201.293 40.0459 201.79 39.9276C202.288 39.8092 202.794 39.7192 203.31 39.6577C203.964 39.5819 204.494 39.5204 204.901 39.473C205.308 39.4209 205.604 39.3381 205.789 39.2244C205.974 39.1108 206.066 38.9261 206.066 38.6705V38.6207C206.066 38.0005 205.891 37.5199 205.54 37.179C205.195 36.8381 204.679 36.6676 203.992 36.6676C203.277 36.6676 202.714 36.8262 202.302 37.1435C201.895 37.456 201.613 37.804 201.457 38.1875L199.461 37.733C199.698 37.0701 200.043 36.535 200.498 36.1278C200.957 35.7159 201.485 35.4176 202.082 35.233C202.678 35.0436 203.306 34.9489 203.964 34.9489C204.399 34.9489 204.861 35.0009 205.349 35.1051C205.841 35.2045 206.3 35.3892 206.727 35.6591C207.157 35.929 207.51 36.3149 207.785 36.8168C208.059 37.3139 208.197 37.9602 208.197 38.7557V46H206.123V44.5085H206.038C205.9 44.7831 205.694 45.053 205.42 45.3182C205.145 45.5833 204.792 45.8035 204.362 45.9787C203.931 46.1539 203.415 46.2415 202.813 46.2415ZM203.275 44.5369C203.862 44.5369 204.364 44.4209 204.781 44.1889C205.202 43.9569 205.522 43.6539 205.739 43.2798C205.962 42.901 206.073 42.4962 206.073 42.0653V40.6591C205.997 40.7348 205.851 40.8059 205.633 40.8722C205.42 40.9337 205.176 40.9882 204.901 41.0355C204.627 41.0781 204.359 41.1184 204.099 41.1562C203.838 41.1894 203.621 41.2178 203.445 41.2415C203.033 41.2936 202.657 41.3812 202.316 41.5043C201.98 41.6274 201.71 41.8049 201.506 42.0369C201.308 42.2642 201.208 42.5672 201.208 42.946C201.208 43.4716 201.402 43.8693 201.79 44.1392C202.179 44.4044 202.674 44.5369 203.275 44.5369ZM211.977 50.0909C211.66 50.0909 211.371 50.0649 211.11 50.0128C210.85 49.9654 210.656 49.9134 210.528 49.8565L211.039 48.1165C211.428 48.2206 211.773 48.2656 212.076 48.2514C212.379 48.2372 212.647 48.1236 212.879 47.9105C213.116 47.6974 213.324 47.3494 213.504 46.8665L213.767 46.142L209.775 35.0909H212.048L214.811 43.5568H214.924L217.687 35.0909H219.967L215.471 47.456C215.263 48.0241 214.998 48.5047 214.676 48.8977C214.354 49.2955 213.97 49.5938 213.525 49.7926C213.08 49.9915 212.564 50.0909 211.977 50.0909Z" fill="black"/>
</svg>
